<svg xmlns="http://www.w3.org/2000/svg" viewBox="0 0 1024 1024" role="img" aria-labelledby="title desc">
  <title id="title">Tavern Tactician</title>
  <desc id="desc">Ein goldener strategischer Spielstein auf dunkelblauem Grund.</desc>
  <defs>
    <linearGradient id="background" x1="0" y1="0" x2="1" y2="1">
      <stop offset="0" stop-color="#1b4653"/>
      <stop offset="0.58" stop-color="#0d2630"/>
      <stop offset="1" stop-color="#081b22"/>
    </linearGradient>
    <radialGradient id="glow" cx="0.22" cy="0.12" r="0.88">
      <stop offset="0" stop-color="#f0bd5d" stop-opacity="0.28"/>
      <stop offset="1" stop-color="#db9f36" stop-opacity="0"/>
    </radialGradient>
    <linearGradient id="gold" x1="0" y1="0" x2="1" y2="1">
      <stop offset="0" stop-color="#f6d48d"/>
      <stop offset="0.48" stop-color="#db9f36"/>
      <stop offset="1" stop-color="#a96312"/>
    </linearGradient>
    <filter id="shadow" x="-30%" y="-30%" width="160%" height="170%">
      <feDropShadow dx="0" dy="32" stdDeviation="28" flood-color="#020c10" flood-opacity="0.42"/>
    </filter>
  </defs>
  <rect width="1024" height="1024" fill="url(#background)"/>
  <rect width="1024" height="1024" fill="url(#glow)"/>
  <g opacity="0.08" stroke="#f6f0e4" stroke-width="3">
    <path d="M0 128h1024M0 256h1024M0 384h1024M0 512h1024M0 640h1024M0 768h1024M0 896h1024"/>
    <path d="M128 0v1024M256 0v1024M384 0v1024M512 0v1024M640 0v1024M768 0v1024M896 0v1024"/>
  </g>
  <g filter="url(#shadow)">
    <path d="M512 184 748 337v350L512 840 276 687V337Z" fill="#102f39" stroke="url(#gold)" stroke-width="34" stroke-linejoin="round"/>
    <path d="M394 582c91-33 152-136 168-260 42 119 27 237-58 350" fill="none" stroke="url(#gold)" stroke-width="45" stroke-linecap="round" stroke-linejoin="round"/>
    <circle cx="512" cy="512" r="258" fill="none" stroke="#f6d48d" stroke-opacity="0.16" stroke-width="10"/>
  </g>
</svg>
